# xmcd CD database file generated by OrangeCD 6.4
#
# Track frame offsets:
#	150
#	13905
#	27473
#	42139
#	57281
#	70612
#	82196
#	94541
#	109940
#	124016
#	140400
#	153668
#	168080
#	182533
#	196956
#	210481
#	225409
#	239554
#	253054
#	266354
#	279527
#	294313
#	309345
#
# Disc length: 4305 seconds
#
# Revision: 1
# Processed by: cddbd v1.5.2PL0 Copyright (c) Steve Scherf et al.
# Submitted via: OrangeCD 6.4
#
DISCID=3e10cf17
DTITLE=Margaret Johnson - In Chronological Order (1923-1927)
DYEAR=1996
DGENRE=Blues
TTITLE0=If I Let You Get Away With It Once You'll Do It All Of The Time
TTITLE1=E Flat Blues
TTITLE2=I Love You Daddy, But You Don't Mean Me No Good
TTITLE3=Nobody Knows The Way I Feel This Mornin'
TTITLE4=Absent Minded Blues
TTITLE5=Papa, Mama's All Alone Blues
TTITLE6=Changeable Daddy Of Mine
TTITLE7=Who'll Chop Your Suey (When I'm Gone)
TTITLE8=Done Made A Fool Out Of Me
TTITLE9=Nobody's Blues But Mine
TTITLE10=I'm A Good Hearted Mama (But I Got A Trifling Man)
TTITLE11=Death House Blues
TTITLE12=What Kind Of Love Is That?
TTITLE13=Folks In New York City Ain't Like Folks Down South
TTITLE14=My Man's Done Done Me Dirty
TTITLE15=Mama, Papa Don't Wanna Come Back Home
TTITLE16=Everything That Happens Just Pleases Me
TTITLE17=When A 'Gator Holler, Folks Say It's A Sign Of Rain
TTITLE18=When A 'Gator Holler, Folks Say It's A Sign Of Rain
TTITLE19=Graysom Street Blues
TTITLE20=Second-Handed Blues
TTITLE21=Stinging Bee Blues
TTITLE22=Best Friend Blues
EXTD=
EXTT0=
EXTT1=
EXTT2=
EXTT3=
EXTT4=
EXTT5=
EXTT6=
EXTT7=
EXTT8=
EXTT9=
EXTT10=
EXTT11=
EXTT12=
EXTT13=
EXTT14=
EXTT15=
EXTT16=
EXTT17=
EXTT18=
EXTT19=
EXTT20=
EXTT21=
EXTT22=
PLAYORDER=
